<?xml version="1.0" encoding="UTF-8" standalone="no"?>
<!-- Created with Inkscape (http://www.inkscape.org/) -->

<svg
   width="27.927629mm"
   height="11.588106mm"
   viewBox="0 0 27.927629 11.588106"
   version="1.1"
   id="svg1663"
   inkscape:version="1.1.1 (c3084ef, 2021-09-22)"
   sodipodi:docname="banner-nuetral.svg"
   xmlns:inkscape="http://www.inkscape.org/namespaces/inkscape"
   xmlns:sodipodi="http://sodipodi.sourceforge.net/DTD/sodipodi-0.dtd"
   xmlns="http://www.w3.org/2000/svg"
   xmlns:svg="http://www.w3.org/2000/svg">
  <sodipodi:namedview
     id="namedview1665"
     pagecolor="#505050"
     bordercolor="#ffffff"
     borderopacity="1"
     inkscape:pageshadow="0"
     inkscape:pageopacity="0"
     inkscape:pagecheckerboard="1"
     inkscape:document-units="mm"
     showgrid="false"
     fit-margin-top="0"
     fit-margin-left="0"
     fit-margin-right="0"
     fit-margin-bottom="0"
     inkscape:zoom="0.64052329"
     inkscape:cx="83.525456"
     inkscape:cy="42.933646"
     inkscape:window-width="1312"
     inkscape:window-height="969"
     inkscape:window-x="0"
     inkscape:window-y="25"
     inkscape:window-maximized="0"
     inkscape:current-layer="layer1" />
  <defs
     id="defs1660" />
  <g
     inkscape:label="Layer 1"
     inkscape:groupmode="layer"
     id="layer1"
     transform="translate(40.400534,-142.08634)">
    <rect
       style="fill:none;fill-opacity:1;fill-rule:evenodd;stroke:#a2a2a2;stroke-width:0.45;stroke-linecap:square;stroke-miterlimit:4;stroke-dasharray:1.8, 0.9;stroke-dashoffset:4.5;stroke-opacity:1"
       id="rect23219-2-1-3-1-5-8-6-4"
       width="27.458763"
       height="11.108744"
       x="-40.159901"
       y="142.32927"
       ry="1.2002865" />
    <text
       xml:space="preserve"
       style="font-style:normal;font-variant:normal;font-weight:200;font-stretch:normal;font-size:4.65264px;line-height:1.25;font-family:'Helvetica Neue';-inkscape-font-specification:'Helvetica Neue, Ultra-Light';font-variant-ligatures:normal;font-variant-caps:normal;font-variant-numeric:normal;font-variant-east-asian:normal;fill:#a2a2a2;fill-opacity:1;stroke:none;stroke-width:0.116636"
       x="-30.789381"
       y="149.5957"
       id="text11495-6"><tspan
         sodipodi:role="line"
         id="tspan11493-0"
         style="font-style:normal;font-variant:normal;font-weight:200;font-stretch:normal;font-size:4.65264px;font-family:'Helvetica Neue';-inkscape-font-specification:'Helvetica Neue, Ultra-Light';font-variant-ligatures:normal;font-variant-caps:normal;font-variant-numeric:normal;font-variant-east-asian:normal;fill:#a2a2a2;fill-opacity:1;stroke-width:0.116636"
         x="-30.789381"
         y="149.5957">MERND</tspan></text>
    <g
       id="g46760"
       transform="translate(-42.319504,152.4844)">
      <path
         style="fill:none;fill-rule:evenodd;stroke:#a2a2a2;stroke-width:0.1;stroke-miterlimit:4;stroke-dasharray:none;stroke-opacity:1;paint-order:fill markers stroke"
         id="rect36683-9"
         width="5.2827802"
         height="5.2827802"
         x="4.8306322"
         y="-7.1910734"
         ry="0.50435966"
         sodipodi:type="rect"
         d="m 5.3349919,-7.1910734 h 4.2740608 c 0.2794153,0 0.5043593,0.2249444 0.5043593,0.5043596 v 4.2740609 c 0,0.2794152 -0.224944,0.5043597 -0.5043593,0.5043597 H 5.3349919 c -0.2794153,0 -0.5043597,-0.2249445 -0.5043597,-0.5043597 v -4.2740609 c 0,-0.2794152 0.2249444,-0.5043596 0.5043597,-0.5043596 z" />
      <g
         id="path13914-9-2"
         transform="matrix(0.46971514,0,0,0.46971514,-13.470092,0.45243933)">
        <path
           style="color:#000000;fill:#46b2cd;stroke-linecap:round;stroke-linejoin:round;-inkscape-stroke:none"
           d="m 40.575925,-10.863135 v 0.419921 h 8.017578 v -0.419921 z"
           id="path43350-4" />
        <path
           style="color:#000000;fill:#46b2cd;stroke-linecap:round;stroke-linejoin:round;-inkscape-stroke:none"
           d="m 40.576172,-11.363281 a 0.50005,0.50005 0 0 0 -0.5,0.5 v 0.419922 a 0.50005,0.50005 0 0 0 0.5,0.4999996 h 8.017578 a 0.50005,0.50005 0 0 0 0.5,-0.4999996 v -0.419922 a 0.50005,0.50005 0 0 0 -0.5,-0.5 z"
           id="path43352-9" />
      </g>
      <g
         id="path13914-1-1-2"
         transform="matrix(0.46971514,0,0,0.46971514,-13.470092,0.45243933)">
        <path
           style="color:#000000;fill:#5d5d5d;stroke-linecap:round;stroke-linejoin:round;-inkscape-stroke:none"
           d="m 40.575925,-12.740088 v 0.421875 h 8.017578 v -0.421875 z"
           id="path43356-9" />
        <path
           style="color:#000000;fill:#5d5d5d;stroke-linecap:round;stroke-linejoin:round;-inkscape-stroke:none"
           d="m 40.576172,-13.240234 a 0.50005,0.50005 0 0 0 -0.5,0.5 v 0.421875 a 0.50005,0.50005 0 0 0 0.5,0.5 h 8.017578 a 0.50005,0.50005 0 0 0 0.5,-0.5 v -0.421875 a 0.50005,0.50005 0 0 0 -0.5,-0.5 z"
           id="path43358-1" />
      </g>
      <g
         id="path13914-1-2-48-0"
         transform="matrix(0.46971514,0,0,0.46971514,-13.470092,0.45243933)">
        <path
           style="color:#000000;fill:#0e5b24;stroke-linecap:round;stroke-linejoin:round;-inkscape-stroke:none"
           d="m 40.575925,-8.9959479 v 0.421875 h 8.017578 v -0.421875 z"
           id="path43362-9" />
        <path
           style="color:#000000;fill:#0e5b24;stroke-linecap:round;stroke-linejoin:round;-inkscape-stroke:none"
           d="m 40.576172,-9.4960938 a 0.50005,0.50005 0 0 0 -0.5,0.5 v 0.421875 a 0.50005,0.50005 0 0 0 0.5,0.5 h 8.017578 a 0.50005,0.50005 0 0 0 0.5,-0.5 v -0.421875 a 0.50005,0.50005 0 0 0 -0.5,-0.5 z"
           id="path43364-3" />
      </g>
      <g
         id="path13914-1-2-4-8-0"
         transform="matrix(0.46971514,0,0,0.46971514,-13.470092,0.45243933)">
        <path
           style="color:#000000;fill:#0e39fb;stroke-linecap:round;stroke-linejoin:round;-inkscape-stroke:none"
           d="m 40.575925,-7.1248539 v 0.421875 h 8.017578 v -0.421875 z"
           id="path43368-0" />
        <path
           style="color:#000000;fill:#0e39fb;stroke-linecap:round;stroke-linejoin:round;-inkscape-stroke:none"
           d="m 40.576172,-7.625 a 0.50005,0.50005 0 0 0 -0.5,0.5 v 0.421875 a 0.50005,0.50005 0 0 0 0.5,0.5 h 8.017578 a 0.50005,0.50005 0 0 0 0.5,-0.5 V -7.125 a 0.50005,0.50005 0 0 0 -0.5,-0.5 z"
           id="path43370-3" />
      </g>
      <g
         id="path13914-1-2-0-7-0"
         transform="matrix(0.46971514,0,0,0.46971514,-13.470092,0.45243933)"
         style="stroke:none">
        <path
           style="color:#000000;fill:#3eba4d;stroke:none;stroke-linecap:round;stroke-linejoin:round;-inkscape-stroke:none"
           d="m 40.575925,-14.595557 v 0.421875 h 8.017578 v -0.421875 z"
           id="path43374-1" />
        <path
           style="color:#000000;fill:#3eba4d;stroke:none;stroke-linecap:round;stroke-linejoin:round;-inkscape-stroke:none"
           d="m 40.576172,-15.095703 a 0.50005,0.50005 0 0 0 -0.5,0.5 v 0.421875 a 0.50005,0.50005 0 0 0 0.5,0.5 h 8.017578 a 0.50005,0.50005 0 0 0 0.5,-0.5 v -0.421875 a 0.50005,0.50005 0 0 0 -0.5,-0.5 z"
           id="path43376-9" />
      </g>
    </g>
  </g>
</svg>
