<?xml version="1.0" encoding="UTF-8" standalone="no"?>
<!-- Created with Inkscape (http://www.inkscape.org/) -->

<svg
   width="11.558742mm"
   height="11.569734mm"
   viewBox="0 0 11.558742 11.569734"
   version="1.1"
   id="svg1882"
   inkscape:version="1.1.1 (c3084ef, 2021-09-22)"
   sodipodi:docname="logo.svg"
   xmlns:inkscape="http://www.inkscape.org/namespaces/inkscape"
   xmlns:sodipodi="http://sodipodi.sourceforge.net/DTD/sodipodi-0.dtd"
   xmlns="http://www.w3.org/2000/svg"
   xmlns:svg="http://www.w3.org/2000/svg">
  <sodipodi:namedview
     id="namedview1884"
     pagecolor="#505050"
     bordercolor="#ffffff"
     borderopacity="1"
     inkscape:pageshadow="0"
     inkscape:pageopacity="0"
     inkscape:pagecheckerboard="1"
     inkscape:document-units="mm"
     showgrid="false"
     fit-margin-top="0"
     fit-margin-left="0"
     fit-margin-right="0"
     fit-margin-bottom="0"
     inkscape:zoom="0.64052329"
     inkscape:cx="-128.80094"
     inkscape:cy="-35.127528"
     inkscape:window-width="1312"
     inkscape:window-height="969"
     inkscape:window-x="0"
     inkscape:window-y="25"
     inkscape:window-maximized="0"
     inkscape:current-layer="layer1" />
  <defs
     id="defs1879" />
  <g
     inkscape:label="Layer 1"
     inkscape:groupmode="layer"
     id="layer1"
     transform="translate(-15.700462,-162.74921)">
    <rect
       style="fill:none;fill-rule:evenodd;stroke:#a2a2a2;stroke-width:0.45;stroke-linecap:square;stroke-linejoin:round;stroke-miterlimit:4;stroke-dasharray:1.8, 0.9;stroke-dashoffset:4.5;stroke-opacity:1;paint-order:fill markers stroke"
       id="rect15952-7"
       width="11.108742"
       height="11.108742"
       x="15.925462"
       y="162.9852"
       ry="0.91277647" />
    <g
       id="g46778"
       transform="translate(-1.347968,173.05329)">
      <path
         style="fill:none;fill-rule:evenodd;stroke:#a2a2a2;stroke-width:0.099;stroke-miterlimit:4;stroke-dasharray:none;stroke-opacity:1;paint-order:fill markers stroke"
         id="rect36683"
         width="7.8508801"
         height="7.8508801"
         x="18.902187"
         y="-8.436327"
         ry="0.7495423"
         sodipodi:type="rect"
         d="m 19.65173,-8.436327 h 6.351795 c 0.415247,0 0.749542,0.3342959 0.749542,0.7495423 v 6.3517956 c 0,0.4152464 -0.334295,0.74954227 -0.749542,0.74954227 H 19.65173 c -0.415247,0 -0.749543,-0.33429587 -0.749543,-0.74954227 v -6.3517956 c 0,-0.4152464 0.334296,-0.7495423 0.749543,-0.7495423 z" />
      <g
         id="path13914-9"
         transform="matrix(0.69805615,0,0,0.69805615,-8.2950055,2.9228999)">
        <path
           style="color:#000000;fill:#46b2cd;stroke-linecap:round;stroke-linejoin:round;-inkscape-stroke:none"
           d="m 40.575925,-10.863135 v 0.419921 h 8.017578 v -0.419921 z"
           id="path43350" />
        <path
           style="color:#000000;fill:#46b2cd;stroke-linecap:round;stroke-linejoin:round;-inkscape-stroke:none"
           d="m 40.576172,-11.363281 a 0.50005,0.50005 0 0 0 -0.5,0.5 v 0.419922 a 0.50005,0.50005 0 0 0 0.5,0.4999996 h 8.017578 a 0.50005,0.50005 0 0 0 0.5,-0.4999996 v -0.419922 a 0.50005,0.50005 0 0 0 -0.5,-0.5 z"
           id="path43352" />
      </g>
      <g
         id="path13914-1-1"
         transform="matrix(0.69805615,0,0,0.69805615,-8.2950055,2.9228999)">
        <path
           style="color:#000000;fill:#5d5d5d;stroke-linecap:round;stroke-linejoin:round;-inkscape-stroke:none"
           d="m 40.575925,-12.740088 v 0.421875 h 8.017578 v -0.421875 z"
           id="path43356" />
        <path
           style="color:#000000;fill:#5d5d5d;stroke-linecap:round;stroke-linejoin:round;-inkscape-stroke:none"
           d="m 40.576172,-13.240234 a 0.50005,0.50005 0 0 0 -0.5,0.5 v 0.421875 a 0.50005,0.50005 0 0 0 0.5,0.5 h 8.017578 a 0.50005,0.50005 0 0 0 0.5,-0.5 v -0.421875 a 0.50005,0.50005 0 0 0 -0.5,-0.5 z"
           id="path43358" />
      </g>
      <g
         id="path13914-1-2-48"
         transform="matrix(0.69805615,0,0,0.69805615,-8.2950055,2.9228999)">
        <path
           style="color:#000000;fill:#0e5b24;stroke-linecap:round;stroke-linejoin:round;-inkscape-stroke:none"
           d="m 40.575925,-8.9959479 v 0.421875 h 8.017578 v -0.421875 z"
           id="path43362" />
        <path
           style="color:#000000;fill:#0e5b24;stroke-linecap:round;stroke-linejoin:round;-inkscape-stroke:none"
           d="m 40.576172,-9.4960938 a 0.50005,0.50005 0 0 0 -0.5,0.5 v 0.421875 a 0.50005,0.50005 0 0 0 0.5,0.5 h 8.017578 a 0.50005,0.50005 0 0 0 0.5,-0.5 v -0.421875 a 0.50005,0.50005 0 0 0 -0.5,-0.5 z"
           id="path43364" />
      </g>
      <g
         id="path13914-1-2-4-8"
         transform="matrix(0.69805615,0,0,0.69805615,-8.2950055,2.9228999)">
        <path
           style="color:#000000;fill:#0e39fb;stroke-linecap:round;stroke-linejoin:round;-inkscape-stroke:none"
           d="m 40.575925,-7.1248539 v 0.421875 h 8.017578 v -0.421875 z"
           id="path43368" />
        <path
           style="color:#000000;fill:#0e39fb;stroke-linecap:round;stroke-linejoin:round;-inkscape-stroke:none"
           d="m 40.576172,-7.625 a 0.50005,0.50005 0 0 0 -0.5,0.5 v 0.421875 a 0.50005,0.50005 0 0 0 0.5,0.5 h 8.017578 a 0.50005,0.50005 0 0 0 0.5,-0.5 V -7.125 a 0.50005,0.50005 0 0 0 -0.5,-0.5 z"
           id="path43370" />
      </g>
      <g
         id="path13914-1-2-0-7"
         transform="matrix(0.69805615,0,0,0.69805615,-8.2950055,2.9228999)"
         style="stroke:none">
        <path
           style="color:#000000;fill:#3eba4d;stroke:none;stroke-linecap:round;stroke-linejoin:round;-inkscape-stroke:none"
           d="m 40.575925,-14.595557 v 0.421875 h 8.017578 v -0.421875 z"
           id="path43374" />
        <path
           style="color:#000000;fill:#3eba4d;stroke:none;stroke-linecap:round;stroke-linejoin:round;-inkscape-stroke:none"
           d="m 40.576172,-15.095703 a 0.50005,0.50005 0 0 0 -0.5,0.5 v 0.421875 a 0.50005,0.50005 0 0 0 0.5,0.5 h 8.017578 a 0.50005,0.50005 0 0 0 0.5,-0.5 v -0.421875 a 0.50005,0.50005 0 0 0 -0.5,-0.5 z"
           id="path43376" />
      </g>
    </g>
  </g>
</svg>
