<?xml version="1.0" standalone="no"?>
<!DOCTYPE svg PUBLIC "-//W3C//DTD SVG 20010904//EN"
 "http://www.w3.org/TR/2001/REC-SVG-20010904/DTD/svg10.dtd">
<svg version="1.0" xmlns="http://www.w3.org/2000/svg"
 width="700.000000pt" height="700.000000pt" viewBox="0 0 700.000000 700.000000"
 preserveAspectRatio="xMidYMid meet">
<metadata>
Created by potrace 1.14, written by Peter Selinger 2001-2017
</metadata>
<g transform="translate(0.000000,700.000000) scale(0.100000,-0.100000)"
fill="#000000" stroke="none">
<path d="M614 6988 c-203 -22 -387 -135 -500 -306 -37 -54 -80 -150 -90 -195
-18 -85 -22 -121 -23 -223 l-2 -114 33 -1 c68 -1 233 2 235 5 2 1 5 54 7 117
5 131 20 189 70 265 80 120 187 173 366 183 l115 6 0 128 c0 71 -2 131 -5 135
-7 9 -128 9 -206 0z"/>
<path d="M1102 6993 c-4 -2 -6 -63 -6 -135 l1 -133 682 -2 681 -2 0 135 c0 74
-3 134 -7 135 -18 2 -1344 4 -1351 2z"/>
<path d="M2735 6980 c-2 -8 -4 -70 -4 -137 l0 -121 682 1 682 2 0 122 c0 67
-2 128 -5 135 -4 10 -136 13 -678 13 -589 0 -673 -2 -677 -15z"/>
<path d="M4374 6985 c-6 -18 -6 -39 -5 -152 l1 -112 680 1 680 0 0 134 c0 74
-3 134 -7 135 -5 1 -309 2 -677 2 -438 1 -670 -1 -672 -8z"/>
<path d="M6033 6992 l-31 -3 1 -132 2 -132 85 -1 c347 -6 379 -13 487 -101
103 -83 143 -182 150 -368 3 -71 7 -132 8 -133 3 -3 144 -5 238 -3 l28 1 -2
128 c-1 151 -11 212 -48 308 -89 229 -306 401 -544 430 -53 7 -323 11 -374 6z"/>
<path d="M1457 5885 c-161 -44 -279 -154 -338 -315 l-24 -65 0 -1990 c0 -1094
3 -2008 7 -2031 31 -183 189 -343 376 -383 75 -16 3969 -16 4044 0 185 39 334
189 373 374 9 47 12 494 12 2025 1 1861 0 1969 -17 2035 -24 93 -62 158 -131
227 -63 62 -151 109 -237 127 -84 18 -4001 14 -4065 -4z m4143 -86 c118 -56
192 -143 229 -267 17 -55 18 -172 18 -2032 0 -1484 -3 -1986 -12 -2025 -35
-154 -172 -285 -330 -315 -44 -8 -596 -10 -2040 -8 -1952 3 -1981 3 -2032 23
-113 43 -203 131 -252 247 l-26 63 -1 1988 c-1 1145 2 2007 8 2030 24 114 114
233 213 284 104 54 -7 51 2145 50 l2005 -2 75 -36z"/>
<path d="M1788 5370 c-71 -6 -133 -47 -168 -110 -22 -41 -24 -57 -26 -175 0
-87 4 -143 13 -170 15 -46 60 -97 106 -123 30 -16 136 -17 1752 -20 946 -1
1739 0 1761 3 62 9 128 57 156 113 21 42 23 61 22 187 0 125 -3 145 -22 183
-26 49 -89 99 -139 108 -40 8 -3371 11 -3455 4z"/>
<path d="M1751 4583 c-32 -6 -85 -42 -111 -76 -40 -51 -47 -86 -45 -227 1
-147 10 -178 66 -232 64 -62 -67 -58 1854 -56 l1751 3 42 27 c22 15 54 49 69
75 27 47 28 52 28 193 0 118 -4 151 -18 177 -26 49 -60 81 -108 103 -43 19
-67 19 -1774 18 -952 0 -1741 -3 -1754 -5z"/>
<path d="M1754 3790 c-50 -11 -112 -61 -136 -110 -20 -40 -23 -60 -22 -185 0
-156 12 -196 73 -248 63 -53 -20 -51 1831 -51 1851 0 1768 -2 1831 51 59 50
73 93 74 238 2 149 -9 195 -58 245 -68 69 82 64 -1832 65 -952 1 -1744 -2
-1761 -5z"/>
<path d="M1753 3000 c-39 -9 -73 -30 -107 -66 -43 -48 -52 -88 -51 -234 1
-118 4 -140 23 -177 23 -45 68 -84 117 -103 22 -9 475 -12 1760 -11 952 0
1741 2 1755 5 42 10 104 60 130 106 23 42 25 55 25 185 0 126 -2 145 -23 186
-24 50 -77 93 -133 109 -41 12 -3447 12 -3496 0z"/>
<path d="M1746 2209 c-40 -11 -89 -47 -114 -83 -31 -46 -40 -100 -37 -233 1
-99 5 -125 24 -161 25 -50 88 -99 140 -108 42 -8 3443 -9 3482 -1 62 12 112
53 144 117 24 47 30 253 10 325 -16 55 -54 103 -106 131 -33 18 -100 19 -1774
20 -957 1 -1753 -2 -1769 -7z"/>
<path d="M4 5871 c-2 -2 -4 -309 -4 -681 l0 -677 129 1 c71 1 132 4 136 8 12
11 11 1348 0 1349 -30 4 -257 4 -261 0z"/>
<path d="M6730 5836 c-1 -17 -1 -1319 -1 -1336 1 -13 22 -15 136 -15 l135 0 0
681 0 681 -135 0 c-90 0 -135 -4 -135 -11z"/>
<path d="M0 3563 l0 -683 135 0 135 0 1 33 c3 199 0 1319 -4 1324 -3 3 -65 6
-137 7 l-130 1 0 -682z"/>
<path d="M6738 4209 c-7 -4 -10 -236 -10 -680 l0 -674 136 -3 136 -3 0 683 0
683 -126 0 c-69 0 -130 -3 -136 -6z"/>
<path d="M0 1930 c0 -374 3 -680 8 -681 4 -1 64 -2 135 -2 l127 -2 1 30 c0 41
0 1262 0 1303 l-1 32 -135 0 -135 0 0 -680z"/>
<path d="M6729 2533 c-3 -215 1 -1306 5 -1310 4 -5 85 -6 224 -4 l42 1 0 680
0 680 -135 0 -135 0 -1 -47z"/>
<path d="M2 962 c-2 -7 -2 -102 0 -210 5 -183 7 -203 32 -276 69 -195 209
-348 386 -419 62 -25 79 -30 132 -44 13 -3 95 -8 183 -10 l161 -5 0 136 1 136
-106 1 c-162 1 -212 9 -291 49 -103 52 -184 154 -215 270 -7 25 -12 116 -12
208 -1 90 -4 166 -8 170 -3 4 -63 7 -132 7 -94 0 -127 -3 -131 -13z"/>
<path d="M6729 810 c-1 -74 -1 -138 0 -142 0 -4 -4 -31 -10 -60 -39 -183 -196
-321 -379 -334 -19 -1 -87 -2 -150 -3 l-116 -1 1 -132 0 -133 175 0 c183 0
223 7 332 51 179 74 334 249 390 439 16 56 21 108 25 260 l5 191 -136 0 -136
-1 -1 -135z"/>
<path d="M1170 135 l0 -135 679 0 680 0 3 131 c2 72 1 133 -1 135 -2 2 -310 4
-683 4 l-678 0 0 -135z"/>
<path d="M2804 135 l0 -135 682 0 681 0 0 135 0 135 -681 0 -682 0 0 -135z"/>
<path d="M4440 135 l0 -135 680 0 680 0 1 58 c0 31 1 91 1 132 l0 75 -681 3
-681 2 0 -135z"/>
</g>
</svg>
